<?xml version="1.0" encoding="UTF-8"?>
<svg version="1.1" xmlns="http://www.w3.org/2000/svg" width="100" height="40">
<path d="M0 0 C33 0 66 0 100 0 C100 13.2 100 26.4 100 40 C67 40 34 40 0 40 C0 26.8 0 13.6 0 0 Z " fill="#EBEAE4" transform="translate(0,0)"/>
<path d="M0 0 C1.65 0 3.3 0 5 0 C5 0.99 5 1.98 5 3 C6.98 3 8.96 3 11 3 C11 3.33 11 3.66 11 4 C5.39 4 -0.22 4 -6 4 C-0.58442473 6.1339829 -0.58442473 6.1339829 4 5 C6.7283768 5 9.31654063 5.53331141 12 6 C12.33 5.34 12.66 4.68 13 4 C13 5.98 13 7.96 13 10 C14.65 10 16.3 10 18 10 C18.99 11.98 18.99 11.98 20 14 C18.13726614 16.03159358 16.63621097 16.94516683 13.87548828 17.18310547 C10.36231502 17.13926908 6.86179963 16.9795684 3.35351562 16.79492188 C-2.13391391 16.62590022 -2.13391391 16.62590022 -7.09375 18.84375 C-9.18676323 20.85907006 -9.18676323 20.85907006 -9.5625 23.5625 C-9.20551731 26.11956068 -9.20551731 26.11956068 -7.1875 27.75 C-3.69451972 29.74598873 -0.9514471 30.13676026 3 30.125 C4.299375 30.12886719 4.299375 30.12886719 5.625 30.1328125 C8.15011695 30.09594205 8.15011695 30.09594205 11 29 C11.33 28.34 11.66 27.68 12 27 C8.7 27 5.4 27 2 27 C1.01 25.02 1.01 25.02 0 23 C2.6606648 20.3393352 4.70646664 20.71054073 8.33007812 20.67773438 C9.14927734 20.68095703 9.96847656 20.68417969 10.8125 20.6875 C11.62009766 20.67138672 12.42769531 20.65527344 13.25976562 20.63867188 C18.02458736 20.63476948 21.08086258 20.98711342 25 24 C24.63753213 30.28277635 24.63753213 30.28277635 22 33.25 C12.74453535 38.64902105 2.78372829 39.42425667 -7.75390625 37.49609375 C-12.7976775 36.00259126 -16.20327733 33.60201894 -20 30 C-20.309375 31.134375 -20.61875 32.26875 -20.9375 33.4375 C-22 37 -22 37 -23 38 C-29.72 37.28 -29.72 37.28 -31 36 C-31.07244053 33.98035801 -31.08377188 31.95832876 -31.0625 29.9375 C-31.05347656 28.83277344 -31.04445312 27.72804688 -31.03515625 26.58984375 C-31.02355469 25.73519531 -31.01195312 24.88054688 -31 24 C-29.68 23.67 -28.36 23.34 -27 23 C-27.495 21.515 -27.495 21.515 -28 20 C-29.24716797 21.15628906 -29.24716797 21.15628906 -30.51953125 22.3359375 C-31.61708767 23.3490665 -32.71474944 24.36208137 -33.8125 25.375 C-34.35970703 25.88289063 -34.90691406 26.39078125 -35.47070312 26.9140625 C-41.92097356 32.85612981 -41.92097356 32.85612981 -45.8125 33.375 C-49.79910931 32.90598714 -51.90657314 31.5042027 -55 29 C-55 28.34 -55 27.68 -55 27 C-56.175625 26.5359375 -56.175625 26.5359375 -57.375 26.0625 C-60 25 -60 25 -62 24 C-61.96519531 24.84304687 -61.93039063 25.68609375 -61.89453125 26.5546875 C-61.86746094 27.65039062 -61.84039062 28.74609375 -61.8125 29.875 C-61.77769531 30.96554688 -61.74289063 32.05609375 -61.70703125 33.1796875 C-61.80371094 34.11039063 -61.90039062 35.04109375 -62 36 C-65 38 -65 38 -67.625 37.6875 C-70 37 -70 37 -71 36 C-71.07244053 33.98035801 -71.08377188 31.95832876 -71.0625 29.9375 C-71.05347656 28.83277344 -71.04445313 27.72804688 -71.03515625 26.58984375 C-71.02355469 25.73519531 -71.01195313 24.88054688 -71 24 C-69.68 23.67 -68.36 23.34 -67 23 C-67.680625 22.2575 -68.36125 21.515 -69.0625 20.75 C-71 18 -71 18 -71.0625 15.875 C-69.50362653 13.12404681 -67.87254005 12.27668447 -65 11 C-61.20036176 10.43409643 -59.35123408 10.83140764 -55.875 12.5 C-52.32984515 15.58274335 -50.76864909 18.7136269 -49 23 C-43.8130533 20.16734556 -40.00763786 16.29341412 -35.81640625 12.1796875 C-32.70700975 9.77324749 -30.89192703 9.17739446 -27 9 C-24.1875 10.0625 -24.1875 10.0625 -22 12 C-21.1875 15.1875 -21.1875 15.1875 -21 18 C-20.54109375 17.59007813 -20.0821875 17.18015625 -19.609375 16.7578125 C-18.99578125 16.21898438 -18.3821875 15.68015625 -17.75 15.125 C-17.14671875 14.59132813 -16.5434375 14.05765625 -15.921875 13.5078125 C-12.88955539 11.12879752 -10.89348604 10 -7 10 C-7.185625 9.030625 -7.37125 8.06125 -7.5625 7.0625 C-7.706875 6.051875 -7.85125 5.04125 -8 4 C-7 3 -7 3 -3.4375 2.9375 C-2.303125 2.958125 -1.16875 2.97875 0 3 C0 2.01 0 1.02 0 0 Z " fill="#91C1B5" transform="translate(73,1)"/>
<path d="M0 0 C5.69534382 2.73376504 7.68965557 6.40081232 10 12 C13.895731 10.84898857 16.94387711 9.71655368 20 7 C20.33 6.34 20.66 5.68 21 5 C23.475 5.495 23.475 5.495 26 6 C26.33 4.02 26.66 2.04 27 0 C29.33294775 -0.04241723 31.66702567 -0.04092937 34 0 C35 1 35 1 35.09765625 3.28515625 C35.08605469 4.20167969 35.07445312 5.11820313 35.0625 6.0625 C35.05347656 6.98160156 35.04445312 7.90070312 35.03515625 8.84765625 C35.02355469 9.55792969 35.01195312 10.26820312 35 11 C34.34 11 33.68 11 33 11 C33 9.35 33 7.7 33 6 C32.236875 6.66 31.47375 7.32 30.6875 8 C28 10 28 10 25 10 C24.7215625 11.299375 24.7215625 11.299375 24.4375 12.625 C22.55914527 17.03505024 20.07145484 19.50762094 16 22 C11.83362707 22.85028019 10.35836319 22.19909066 6.625 20.125 C5.75875 19.42375 4.8925 18.7225 4 18 C4 17.34 4 16.68 4 16 C3.21625 15.690625 2.4325 15.38125 1.625 15.0625 C-1 14 -1 14 -3 13 C-2.96519531 13.84304687 -2.93039062 14.68609375 -2.89453125 15.5546875 C-2.86746094 16.65039062 -2.84039062 17.74609375 -2.8125 18.875 C-2.77769531 19.96554688 -2.74289062 21.05609375 -2.70703125 22.1796875 C-2.80371094 23.11039063 -2.90039062 24.04109375 -3 25 C-6 27 -6 27 -8.625 26.6875 C-11 26 -11 26 -12 25 C-12.07244053 22.98035801 -12.08377188 20.95832876 -12.0625 18.9375 C-12.05347656 17.83277344 -12.04445313 16.72804688 -12.03515625 15.58984375 C-12.02355469 14.73519531 -12.01195312 13.88054688 -12 13 C-10.68 12.67 -9.36 12.34 -8 12 C-8.680625 11.2575 -9.36125 10.515 -10.0625 9.75 C-12 7 -12 7 -12.0625 4.875 C-9.41773096 0.20776051 -5.01441061 -0.71634437 0 0 Z " fill="#827369" transform="translate(14,12)"/>
<path d="M0 0 C0.81919922 0.00322266 1.63839844 0.00644531 2.48242188 0.00976562 C3.29001953 -0.00634766 4.09761719 -0.02246094 4.9296875 -0.0390625 C9.69450923 -0.04296489 12.75078446 0.30937905 16.66992188 3.32226562 C16.30745401 9.60504197 16.30745401 9.60504197 13.66992188 12.57226562 C4.4217165 17.96705209 -5.75216461 18.89847164 -16.25976562 16.71289062 C-18.70507812 15.94726562 -18.70507812 15.94726562 -22.33007812 14.32226562 C-22.66007812 13.66226563 -22.99007812 13.00226562 -23.33007812 12.32226562 C-19.04007813 13.31226563 -14.75007813 14.30226563 -10.33007812 15.32226562 C-12.64952601 11.8430938 -14.59377776 11.02796796 -18.33007812 9.32226562 C-18.00007813 8.00226562 -17.67007813 6.68226562 -17.33007812 5.32226562 C-16.73195313 5.79664063 -16.13382812 6.27101563 -15.51757812 6.75976562 C-12.11767646 9.18826682 -9.39479389 9.45936299 -5.33007812 9.44726562 C-4.03070313 9.45113281 -4.03070313 9.45113281 -2.70507812 9.45507812 C-0.17996117 9.41820768 -0.17996117 9.41820768 2.66992188 8.32226562 C2.99992187 7.66226562 3.32992187 7.00226562 3.66992188 6.32226562 C0.36992188 6.32226562 -2.93007812 6.32226562 -6.33007812 6.32226562 C-6.99007812 5.00226562 -7.65007812 3.68226562 -8.33007812 2.32226562 C-5.66941333 -0.33839917 -3.62361149 0.03280636 0 0 Z " fill="#93C3B7" transform="translate(81.330078125,21.677734375)"/>
<path d="M0 0 C3.125 1 3.125 1 5.125 3 C5.52264263 4.98821313 5.86275349 6.98944339 6.125 9 C7.115 8.34 8.105 7.68 9.125 7 C8.5990625 8.299375 8.5990625 8.299375 8.0625 9.625 C7.02096296 13.37453336 7.0202621 15.29123704 8.125 19 C10.0695527 21.82865928 10.0695527 21.82865928 12.125 24 C8.25 22.125 8.25 22.125 7.125 21 C6.815625 22.134375 6.50625 23.26875 6.1875 24.4375 C5.125 28 5.125 28 4.125 29 C-2.595 28.28 -2.595 28.28 -3.875 27 C-3.94744053 24.98035801 -3.95877188 22.95832876 -3.9375 20.9375 C-3.92847656 19.83277344 -3.91945313 18.72804688 -3.91015625 17.58984375 C-3.89855469 16.73519531 -3.88695312 15.88054688 -3.875 15 C-2.555 14.67 -1.235 14.34 0.125 14 C-0.205 13.01 -0.535 12.02 -0.875 11 C-2.855 12.65 -4.835 14.3 -6.875 16 C-7.205 14.68 -7.535 13.36 -7.875 12 C-7.1325 11.71125 -6.39 11.4225 -5.625 11.125 C-3.30760203 10.17697356 -1.09582885 9.15154089 1.125 8 C1.125 9.65 1.125 11.3 1.125 13 C1.785 13 2.445 13 3.125 13 C2.63 8.05 2.63 8.05 2.125 3 C0.145 3 -1.835 3 -3.875 3 C-4.535 4.65 -5.195 6.3 -5.875 8 C-7.525 8 -9.175 8 -10.875 8 C-11.205 8.99 -11.535 9.98 -11.875 11 C-14.47742414 12.64820195 -15.73748779 13 -18.875 13 C-6.56730769 0 -6.56730769 0 0 0 Z " fill="#6F5245" transform="translate(45.875,10)"/>
<path d="M0 0 C1.65 0 3.3 0 5 0 C5 0.99 5 1.98 5 3 C6.98 3 8.96 3 11 3 C11 3.33 11 3.66 11 4 C5.39 4 -0.22 4 -6 4 C-0.58442473 6.1339829 -0.58442473 6.1339829 4 5 C6.7283768 5 9.31654063 5.53331141 12 6 C12.33 5.34 12.66 4.68 13 4 C13 5.98 13 7.96 13 10 C14.65 10 16.3 10 18 10 C18.66 11.32 19.32 12.64 20 14 C18.13726614 16.03159358 16.63621097 16.94516683 13.87548828 17.18310547 C10.36231502 17.13926908 6.86179963 16.9795684 3.35351562 16.79492188 C-2.12521473 16.62515528 -2.12521473 16.62515528 -7.078125 18.83203125 C-9.23557014 21.2657346 -9.73265121 22.79181456 -10 26 C-10.33 26 -10.66 26 -11 26 C-11.16546763 18.71942446 -11.16546763 18.71942446 -10 16 C-7.07667985 14.17904127 -4.90140382 13.76507773 -1.48828125 13.83984375 C-0.22854492 13.8562793 -0.22854492 13.8562793 1.05664062 13.87304688 C1.92482422 13.89431641 2.79300781 13.91558594 3.6875 13.9375 C5.42049266 13.97177898 7.15357305 14.00195457 8.88671875 14.02734375 C9.65201904 14.04531006 10.41731934 14.06327637 11.20581055 14.08178711 C13.02379093 14.20093362 13.02379093 14.20093362 14 13 C11.65061112 11.82530556 10.04926795 11.79965111 7.4296875 11.68359375 C6.53378906 11.64169922 5.63789062 11.59980469 4.71484375 11.55664062 C3.77769531 11.51732422 2.84054688 11.47800781 1.875 11.4375 C0.93011719 11.39431641 -0.01476562 11.35113281 -0.98828125 11.30664062 C-3.32537092 11.20040928 -5.6625683 11.09836824 -8 11 C-8.04241723 8.66705225 -8.04092937 6.33297433 -8 4 C-7 3 -7 3 -3.4375 2.9375 C-2.303125 2.958125 -1.16875 2.97875 0 3 C0 2.01 0 1.02 0 0 Z " fill="#7C5F44" transform="translate(73,1)"/>
<path d="M0 0 C2.33294775 -0.04241723 4.66702567 -0.04092937 7 0 C8 1 8 1 8.09765625 3.28515625 C8.08605469 4.20167969 8.07445313 5.11820313 8.0625 6.0625 C8.05347656 6.98160156 8.04445313 7.90070312 8.03515625 8.84765625 C8.02355469 9.55792969 8.01195313 10.26820312 8 11 C7.34 11 6.68 11 6 11 C6 9.35 6 7.7 6 6 C5.236875 6.66 4.47375 7.32 3.6875 8 C1 10 1 10 -2 10 C-2.09152344 10.60328125 -2.18304688 11.2065625 -2.27734375 11.828125 C-3.17720492 14.53257263 -4.20702019 15.2082314 -6.5625 16.75 C-7.20316406 17.17796875 -7.84382813 17.6059375 -8.50390625 18.046875 C-8.99761719 18.36140625 -9.49132812 18.6759375 -10 19 C-11.65 17.68 -13.3 16.36 -15 15 C-13.66195697 10.98587091 -11.47584633 10.26994046 -8 8 C-7.34 7.01 -6.68 6.02 -6 5 C-4.35 5.33 -2.7 5.66 -1 6 C-0.67 4.02 -0.34 2.04 0 0 Z " fill="#90C2B5" transform="translate(41,12)"/>
<path d="M0 0 C1.32 0.33 2.64 0.66 4 1 C4.08078641 3.12438339 4.13909141 5.2496323 4.1875 7.375 C4.22230469 8.55835938 4.25710938 9.74171875 4.29296875 10.9609375 C4.19628906 11.96382812 4.09960938 12.96671875 4 14 C1 16 1 16 -1.625 15.6875 C-4 15 -4 15 -5 14 C-5.07244053 11.98035801 -5.08377188 9.95832876 -5.0625 7.9375 C-5.05347656 6.83277344 -5.04445313 5.72804688 -5.03515625 4.58984375 C-5.02355469 3.73519531 -5.01195312 2.88054688 -5 2 C-3.35 1.67 -1.7 1.34 0 1 C0 0.67 0 0.34 0 0 Z " fill="#AB8B5E" transform="translate(7,23)"/>
<path d="M0 0 C-1.75 3.875 -1.75 3.875 -4 5 C-5.46444772 5.03694914 -6.93070659 5.01350894 -8.39453125 4.95703125 C-9.26787109 4.93576172 -10.14121094 4.91449219 -11.04101562 4.89257812 C-12.87734073 4.83952011 -14.71336352 4.77456214 -16.54882812 4.69726562 C-20.86513296 4.61163724 -23.30623894 4.5863779 -27.0859375 6.83984375 C-29.23808285 9.2686935 -29.73321389 10.79856666 -30 14 C-30.33 14 -30.66 14 -31 14 C-31.16546763 6.71942446 -31.16546763 6.71942446 -30 4 C-27.07667985 2.17904127 -24.90140382 1.76507773 -21.48828125 1.83984375 C-20.22854492 1.8562793 -20.22854492 1.8562793 -18.94335938 1.87304688 C-17.64108398 1.90495117 -17.64108398 1.90495117 -16.3125 1.9375 C-14.57950734 1.97177898 -12.84642695 2.00195457 -11.11328125 2.02734375 C-10.34798096 2.04531006 -9.58268066 2.06327637 -8.79418945 2.08178711 C-6.97620907 2.20093362 -6.97620907 2.20093362 -6 1 C-6.66 0.34 -7.32 -0.32 -8 -1 C-4.59745511 -2.2151946 -3.06748874 -1.86240388 0 0 Z " fill="#7E8D86" transform="translate(93,13)"/>
<path d="M0 0 C1.051875 0.66 2.10375 1.32 3.1875 2 C8.88791269 4.91696794 14.75669407 4.34262045 21 4 C20.34 4.66 19.68 5.32 19 6 C17.68 6 16.36 6 15 6 C15 6.66 15 7.32 15 8 C13.02 8.99 13.02 8.99 11 10 C13.64 10.33 16.28 10.66 19 11 C19 11.33 19 11.66 19 12 C2.70295793 12.62591769 2.70295793 12.62591769 -4 9 C-4.33 8.34 -4.66 7.68 -5 7 C-0.71 7.99 3.58 8.98 8 10 C5.68055212 6.52082818 3.73630036 5.70570234 0 4 C0 2.68 0 1.36 0 0 Z " fill="#738D85" transform="translate(63,27)"/>
<path d="M0 0 C0.66902344 0.39445312 1.33804687 0.78890625 2.02734375 1.1953125 C4.75964386 2.77910258 5.71381643 3.3203125 8.96484375 3.3203125 C10.65283202 1.88281059 10.65283202 1.88281059 11.96484375 0.3203125 C12.62484375 0.6503125 13.28484375 0.9803125 13.96484375 1.3203125 C7.20288908 8.04794253 7.20288908 8.04794253 2.83984375 9.0078125 C-0.81672372 8.13341593 -3.15470942 6.72068486 -6.03515625 4.3203125 C-6.03515625 3.3303125 -6.03515625 2.3403125 -6.03515625 1.3203125 C-2.6094913 -0.87149997 -2.6094913 -0.87149997 0 0 Z " fill="#7B978C" transform="translate(24.03515625,25.6796875)"/>
<path d="M0 0 C2.62748631 0.05985162 5.24916995 0.14676224 7.875 0.25 C8.62136719 0.26417969 9.36773437 0.27835938 10.13671875 0.29296875 C12.3046875 0.390625 12.3046875 0.390625 16 1 C16.66 2.32 17.32 3.64 18 5 C11.4 5.33 4.8 5.66 -2 6 C-2 5.01 -2 4.02 -2 3 C-1.34 2.67 -0.68 2.34 0 2 C0 1.34 0 0.68 0 0 Z " fill="#ECEDE7" transform="translate(75,17)"/>
<path d="M0 0 C1.19496094 -0.00386719 1.19496094 -0.00386719 2.4140625 -0.0078125 C3.24679688 -0.00007813 4.07953125 0.00765625 4.9375 0.015625 C5.77023438 0.00789063 6.60296875 0.00015625 7.4609375 -0.0078125 C8.25757812 -0.00523438 9.05421875 -0.00265625 9.875 0 C10.60589844 0.00225586 11.33679688 0.00451172 12.08984375 0.00683594 C13.9375 0.265625 13.9375 0.265625 15.9375 2.265625 C13.6275 1.935625 11.3175 1.605625 8.9375 1.265625 C8.9375 1.925625 8.9375 2.585625 8.9375 3.265625 C7.48013913 3.46053952 6.02155407 3.64631858 4.5625 3.828125 C3.75039062 3.93253906 2.93828125 4.03695313 2.1015625 4.14453125 C-0.0625 4.265625 -0.0625 4.265625 -2.0625 3.265625 C-2.3925 3.925625 -2.7225 4.585625 -3.0625 5.265625 C-2.36382812 5.25402344 -1.66515625 5.24242187 -0.9453125 5.23046875 C-0.03523438 5.22144531 0.87484375 5.21242188 1.8125 5.203125 C2.71742187 5.19152344 3.62234375 5.17992187 4.5546875 5.16796875 C6.9375 5.265625 6.9375 5.265625 8.9375 6.265625 C8.9375 6.925625 8.9375 7.585625 8.9375 8.265625 C7.6175 8.595625 6.2975 8.925625 4.9375 9.265625 C5.2675 8.275625 5.5975 7.285625 5.9375 6.265625 C2.6375 6.265625 -0.6625 6.265625 -4.0625 6.265625 C-4.7225 4.945625 -5.3825 3.625625 -6.0625 2.265625 C-3.69681778 -0.10005722 -3.21017774 0.00990796 0 0 Z " fill="#768D85" transform="translate(79.0625,21.734375)"/>
<path d="M0 0 C0.99 0 1.98 0 3 0 C5.41914224 2.63259597 6.86476266 4.59428799 8 8 C4.17085234 9.4727491 1.71098899 8.50018704 -2 7 C-5 5 -5 5 -5.6875 2.375 C-5.790625 1.59125 -5.89375 0.8075 -6 0 C-3.47064411 -1.26467795 -2.65809097 -0.7249339 0 0 Z " fill="#B4A7A0" transform="translate(12,16)"/>
<path d="M0 0 C3.08315385 -0.08733513 6.16598827 -0.14050127 9.25 -0.1875 C10.12269531 -0.21263672 10.99539062 -0.23777344 11.89453125 -0.26367188 C18.41598332 -0.33834499 18.41598332 -0.33834499 21.609375 1.51171875 C22.06828125 2.00285156 22.5271875 2.49398438 23 3 C19.41786361 4.19404546 16.46378742 4.168824 12.6875 4.1875 C11.39199219 4.20167969 10.09648438 4.21585938 8.76171875 4.23046875 C5.1337412 4.00819391 2.3667272 3.32059222 -1 2 C-0.67 1.34 -0.34 0.68 0 0 Z " fill="#93C5B0" transform="translate(66,12)"/>
<path d="M0 0 C3.125 1 3.125 1 5.125 3 C5.1015625 5.3828125 5.1015625 5.3828125 4.75 8.125 C4.58371094 9.49011719 4.58371094 9.49011719 4.4140625 10.8828125 C4.27097656 11.93082031 4.27097656 11.93082031 4.125 13 C3.795 13 3.465 13 3.125 13 C2.63 8.05 2.63 8.05 2.125 3 C0.145 3 -1.835 3 -3.875 3 C-4.535 4.65 -5.195 6.3 -5.875 8 C-7.525 8 -9.175 8 -10.875 8 C-11.205 8.99 -11.535 9.98 -11.875 11 C-14.47742414 12.64820195 -15.73748779 13 -18.875 13 C-6.56730769 0 -6.56730769 0 0 0 Z " fill="#74837A" transform="translate(45.875,10)"/>
<path d="M0 0 C2 2 2 2 2.9375 4.0625 C3.90403542 6.34565884 3.90403542 6.34565884 7 7 C7 7.99 7 8.98 7 10 C6.29875 9.62875 5.5975 9.2575 4.875 8.875 C1.97417694 7.66766842 1.97417694 7.66766842 -0.875 9.125 C-4 10 -4 10 -5.9375 9.25 C-7.67166974 8.24306273 -9.34175619 7.12760579 -11 6 C-10.67 5.34 -10.34 4.68 -10 4 C-5.545 4.99 -5.545 4.99 -1 6 C-1.33 4.35 -1.66 2.7 -2 1 C-1.34 0.67 -0.68 0.34 0 0 Z " fill="#68655F" transform="translate(20,18)"/>
<path d="M0 0 C0.33 0.99 0.66 1.98 1 3 C1.99 2.67 2.98 2.34 4 2 C5.33333333 7.33333333 5.33333333 7.33333333 3.8125 10.375 C2 12 2 12 -2 12 C-2.17835515 7.45194365 -1.99785435 4.1205746 0 0 Z " fill="#7A4F40" transform="translate(46,25)"/>
<path d="M0 0 C0.99 0.33 1.98 0.66 3 1 C2.63265306 7.36734694 2.63265306 7.36734694 -0.3125 10.3125 C-4.53457948 12.96357316 -6.91851214 14.28230488 -12 14 C-11.01 13.67 -10.02 13.34 -9 13 C-9 12.34 -9 11.68 -9 11 C-8.071875 10.566875 -7.14375 10.13375 -6.1875 9.6875 C-2.60357995 7.86539751 -2.60357995 7.86539751 0 5 C0.25069913 2.37429296 0.25069913 2.37429296 0 0 Z " fill="#6C7870" transform="translate(95,24)"/>
<path d="M0 0 C2.97 1.98 5.94 3.96 9 6 C8.01 7.485 8.01 7.485 7 9 C3.96133201 9.41137202 1.07840297 9.13193156 -2 9 C-1.34 6.03 -0.68 3.06 0 0 Z " fill="#E7E2DC" transform="translate(52,30)"/>
<path d="M0 0 C0.66 0.99 1.32 1.98 2 3 C2.99 2.34 3.98 1.68 5 1 C4.649375 1.86625 4.29875 2.7325 3.9375 3.625 C2.89596296 7.37453336 2.8952621 9.29123704 4 13 C5.9445527 15.82865928 5.9445527 15.82865928 8 18 C4.125 16.125 4.125 16.125 3 15 C2.67 16.98 2.34 18.96 2 21 C1.67 21 1.34 21 1 21 C1 17.37 1 13.74 1 10 C0.34 10 -0.32 10 -1 10 C-0.67 6.7 -0.34 3.4 0 0 Z " fill="#575148" transform="translate(50,16)"/>
<path d="M0 0 C5.29441695 -0.50423019 7.81413519 0.81076967 12 4 C11.67 5.32 11.34 6.64 11 8 C9.02 6.68 7.04 5.36 5 4 C5.33 4.66 5.66 5.32 6 6 C3.37812506 4.95125002 2.20628639 4.35068687 0.75 1.875 C0.5025 1.25625 0.255 0.6375 0 0 Z " fill="#9B9189" transform="translate(8,12)"/>
<path d="M0 0 C0.33 1.32 0.66 2.64 1 4 C0.01 4.33 -0.98 4.66 -2 5 C-2.33 6.98 -2.66 8.96 -3 11 C-5.97 10.505 -5.97 10.505 -9 10 C-9.33 10.66 -9.66 11.32 -10 12 C-10 9 -10 9 -7.8125 6.73828125 C-6.884375 5.93777344 -5.95625 5.13726562 -5 4.3125 C-4.071875 3.50425781 -3.14375 2.69601563 -2.1875 1.86328125 C-1.1046875 0.94095703 -1.1046875 0.94095703 0 0 Z " fill="#EAE4DC" transform="translate(45,20)"/>
<path d="M0 0 C1.051875 0.66 2.10375 1.32 3.1875 2 C8.88791269 4.91696794 14.75669407 4.34262045 21 4 C17.73445415 7.26554585 13.67861559 6.75079797 9.22265625 7.046875 C5.20044108 6.98837005 3.2261004 6.30435743 0 4 C0 2.68 0 1.36 0 0 Z " fill="#6A7F77" transform="translate(63,27)"/>
<path d="M0 0 C1.66611905 -0.042721 3.33382885 -0.04063832 5 0 C6 1 6 1 6.09765625 3.28515625 C6.08605469 4.20167969 6.07445312 5.11820313 6.0625 6.0625 C6.05347656 6.98160156 6.04445313 7.90070312 6.03515625 8.84765625 C6.02355469 9.55792969 6.01195312 10.26820312 6 11 C5.34 11 4.68 11 4 11 C4 9.35 4 7.7 4 6 C3.34 6 2.68 6 2 6 C2 5.34 2 4.68 2 4 C1.34 4 0.68 4 0 4 C0 2.68 0 1.36 0 0 Z " fill="#9DC3B6" transform="translate(43,12)"/>
<path d="M0 0 C0.66 0 1.32 0 2 0 C2.33 0.66 2.66 1.32 3 2 C3.66 2 4.32 2 5 2 C5.66 1.34 6.32 0.68 7 0 C7.33 0.66 7.66 1.32 8 2 C8.99 2 9.98 2 11 2 C11.66 1.34 12.32 0.68 13 0 C13.66 1.32 14.32 2.64 15 4 C9.39 4 3.78 4 -2 4 C-1.34 2.68 -0.68 1.36 0 0 Z " fill="#DFB583" transform="translate(69,7)"/>
<path d="M0 0 C1.65 0 3.3 0 5 0 C5 0.99 5 1.98 5 3 C6.98 3 8.96 3 11 3 C11 3.33 11 3.66 11 4 C5.39 4 -0.22 4 -6 4 C-6.33 4.66 -6.66 5.32 -7 6 C-7 5.01 -7 4.02 -7 3 C-4.69 3 -2.38 3 0 3 C0 2.01 0 1.02 0 0 Z " fill="#7D6968" transform="translate(73,1)"/>
<path d="M0 0 C3.63 0.33 7.26 0.66 11 1 C10.67 1.99 10.34 2.98 10 4 C6.6875 4.6875 6.6875 4.6875 3 5 C1.0625 3.6875 1.0625 3.6875 0 2 C0 1.34 0 0.68 0 0 Z " fill="#DADED7" transform="translate(74,27)"/>
<path d="M0 0 C0.66 0.33 1.32 0.66 2 1 C2 3.97 2 6.94 2 10 C0.68 9.67 -0.64 9.34 -2 9 C-2.125 5.625 -2.125 5.625 -2 2 C-1.34 1.34 -0.68 0.68 0 0 Z " fill="#F4BA63" transform="translate(6,26)"/>
<path d="M0 0 C-4.28534391 2.85689594 -7.96398073 2.34655647 -12.9375 1.5 C-13.618125 1.335 -14.29875 1.17 -15 1 C-9.79397346 -2.00347685 -5.45542508 -2.72771254 0 0 Z " fill="#91C6BE" transform="translate(89,14)"/>
<path d="M0 0 C-0.721875 0.556875 -1.44375 1.11375 -2.1875 1.6875 C-4.97457299 3.97909334 -7.48641528 6.41459857 -10 9 C-10.35789474 3.63157895 -10.35789474 3.63157895 -8.9375 1.125 C-5.99772876 -0.58196395 -3.32129197 -0.18799766 0 0 Z " fill="#E0DFDB" transform="translate(61,12)"/>
<path d="M0 0 C2.31 0.66 4.62 1.32 7 2 C7 2.66 7 3.32 7 4 C9.16666667 3.16666667 9.16666667 3.16666667 10 1 C10.66 1.99 11.32 2.98 12 4 C11 5 11 5 7.6875 5.25 C3.91619093 4.99431803 2.57543228 4.67844957 0 2 C0 1.34 0 0.68 0 0 Z " fill="#849D92" transform="translate(18,28)"/>
<path d="M0 0 C-0.33 0.99 -0.66 1.98 -1 3 C-2.98 3 -4.96 3 -7 3 C-6.67 2.34 -6.34 1.68 -6 1 C-6.66 0.34 -7.32 -0.32 -8 -1 C-4.59745511 -2.2151946 -3.06748874 -1.86240388 0 0 Z " fill="#87A499" transform="translate(93,13)"/>
<path d="M0 0 C0.33 0.99 0.66 1.98 1 3 C-0.9375 5.6875 -0.9375 5.6875 -3 8 C-3.99 7.67 -4.98 7.34 -6 7 C-4.77065985 3.31197956 -3.06140622 2.27643027 0 0 Z " fill="#94BEB1" transform="translate(32,20)"/>
<path d="M0 0 C2.64 0.66 5.28 1.32 8 2 C7.34 3.32 6.68 4.64 6 6 C2.535 4.02 2.535 4.02 -1 2 C-0.67 1.34 -0.34 0.68 0 0 Z " fill="#80746D" transform="translate(10,22)"/>
<path d="M0 0 C0.66 0.33 1.32 0.66 2 1 C-1.96 4.465 -1.96 4.465 -6 8 C-6.33 6.68 -6.66 5.36 -7 4 C-5.824375 3.566875 -5.824375 3.566875 -4.625 3.125 C-1.90328368 2.15087746 -1.90328368 2.15087746 0 0 Z " fill="#718C81" transform="translate(45,18)"/>
<path d="M0 0 C0.66 0.66 1.32 1.32 2 2 C1.01 2.66 0.02 3.32 -1 4 C-1.66 4.66 -2.32 5.32 -3 6 C-4.32392972 7.01241685 -5.65599167 8.01439389 -7 9 C-7.66 8.67 -8.32 8.34 -9 8 C-7.87811441 6.85111717 -6.75238316 5.70598863 -5.625 4.5625 C-4.99851562 3.92441406 -4.37203125 3.28632813 -3.7265625 2.62890625 C-2 1 -2 1 0 0 Z " fill="#63746C" transform="translate(36,15)"/>
<path d="M0 0 C1.6875 1.5625 1.6875 1.5625 3 3 C1.0085944 3.38133299 -0.99279077 3.71325582 -3 4 C-3.33 3.67 -3.66 3.34 -4 3 C-4.99 2.34 -5.98 1.68 -7 1 C-3.375 -1.125 -3.375 -1.125 0 0 Z " fill="#85ABA1" transform="translate(66,12)"/>
<path d="M0 0 C0.66 0.33 1.32 0.66 2 1 C1.67 1.66 1.34 2.32 1 3 C1.66 3.33 2.32 3.66 3 4 C0.6875 4.625 0.6875 4.625 -2 5 C-2.99 4.34 -3.98 3.68 -5 3 C-2.625 1.4375 -2.625 1.4375 0 0 Z " fill="#96C2B7" transform="translate(62,13)"/>
<path d="M0 0 C0.66 0.33 1.32 0.66 2 1 C1.67 1.33 1.34 1.66 1 2 C2.32 2.99 3.64 3.98 5 5 C3.02 5.33 1.04 5.66 -1 6 C-1.625 4.125 -1.625 4.125 -2 2 C-1.34 1.34 -0.68 0.68 0 0 Z " fill="#7DA89C" transform="translate(57,14)"/>
<path d="M0 0 C3.36591866 1.44253657 5.51047079 3.33264727 8 6 C4.06830895 6 2.83572772 4.60580385 0 2 C0 1.34 0 0.68 0 0 Z " fill="#E9DFD7" transform="translate(8,15)"/>
<path d="M0 0 C1.32 0.66 2.64 1.32 4 2 C3.525625 2.391875 3.05125 2.78375 2.5625 3.1875 C0.64820367 5.40808374 0.38733012 7.13375709 0 10 C-0.33 10 -0.66 10 -1 10 C-1.08004482 6.4780279 -1.04005702 3.38018531 0 0 Z " fill="#606D64" transform="translate(63,17)"/>
<path d="M0 0 C0.33 0.66 0.66 1.32 1 2 C-0.1875 3.5 -0.1875 3.5 -2 5 C-4.6875 5.1875 -4.6875 5.1875 -7 5 C-6.01 4.67 -5.02 4.34 -4 4 C-4 3.34 -4 2.68 -4 2 C-2.68 1.34 -1.36 0.68 0 0 Z " fill="#73827D" transform="translate(90,33)"/>
<path d="M0 0 C1.5 1.3125 1.5 1.3125 3 3 C3 3.99 3 4.98 3 6 C1.68 5.67 0.36 5.34 -1 5 C-0.67 3.35 -0.34 1.7 0 0 Z " fill="#804939" transform="translate(46,29)"/>
<path d="M0 0 C1.9375 0.75 1.9375 0.75 4 2 C4.75 4.125 4.75 4.125 5 6 C4.01 6.495 4.01 6.495 3 7 C0.64046906 4.64046906 0.50858587 3.22104383 0 0 Z " fill="#C1B5AE" transform="translate(6,16)"/>
</svg>
